HIERARCHY
ROOT Hips
{
  OFFSET -1050.89 95.0078 470.478
  CHANNELS 6 Xposition Yposition Zposition Zrotation Xrotation Yrotation
  JOINT RightUpLeg
  {
    OFFSET -8.9458 -8.66707 0.101652
    CHANNELS 3 Zrotation Xrotation Yrotation
    JOINT RightLeg
    {
      OFFSET 0 -44.4227 1.3727
      CHANNELS 3 Zrotation Xrotation Yrotation
      JOINT RightFoot
      {
        OFFSET 0.253549 -42.0924 -1.46059
        CHANNELS 3 Zrotation Xrotation Yrotation
        JOINT RightToes
        {
          OFFSET 0.04 -4.41509 8.4991
          CHANNELS 3 Zrotation Xrotation Yrotation
          End Site
          {
            OFFSET -0.08 -0.137448 9.77979
          }
        }
      }
    }
  }
  JOINT Spine
  {
    OFFSET 0 11.8905 0
    CHANNELS 3 Zrotation Xrotation Yrotation
    JOINT Spine1
    {
      OFFSET 0 25.6574 0.127663
      CHANNELS 3 Zrotation Xrotation Yrotation
      JOINT HEad
      {
        OFFSET 0 8.73416 0.011341
        CHANNELS 3 Zrotation Xrotation Yrotation
        End Site
        {
          OFFSET -0.29 12.7742 2.51395
        }
      }
      JOINT LeftShoulder1
      {
        OFFSET 8.99 -0.362252 -0.22
        CHANNELS 3 Zrotation Xrotation Yrotation
        JOINT LeftArm
        {
          OFFSET 10.2827 -0.00338 0.322123
          CHANNELS 3 Zrotation Xrotation Yrotation
          JOINT LeftForeArm
          {
            OFFSET 32.7669 0.099144 -1.42434
            CHANNELS 3 Zrotation Xrotation Yrotation
            JOINT LeftHand
            {
              OFFSET 27.5643 0.085362 1.02216
              CHANNELS 3 Zrotation Xrotation Yrotation
              End Site
              {
                OFFSET 16.7443 -0.6 1.50291
              }
            }
          }
        }
      }
      JOINT RightShoulder
      {
        OFFSET -8.99 -0.362252 -0.22
        CHANNELS 3 Zrotation Xrotation Yrotation
        JOINT RightArm
        {
          OFFSET -10.2827 -0.00338 0.322123
          CHANNELS 3 Zrotation Xrotation Yrotation
          JOINT RightForeArm
          {
            OFFSET -32.8971 0.099144 -1.42434
            CHANNELS 3 Zrotation Xrotation Yrotation
            JOINT RightHand
            {
              OFFSET -27.4921 0.085362 1.02216
              CHANNELS 3 Zrotation Xrotation Yrotation
              End Site
              {
                OFFSET -16.6312 -0.6 1.50291
              }
            }
          }
        }
      }
    }
  }
  JOINT LeftUpLeg
  {
    OFFSET 8.9458 -8.66707 0.101652
    CHANNELS 3 Zrotation Xrotation Yrotation
    JOINT LeftLeg
    {
      OFFSET 0 -44.4227 1.3727
      CHANNELS 3 Zrotation Xrotation Yrotation
      JOINT LeftFoot
      {
        OFFSET -0.253549 -42.0924 -1.46059
        CHANNELS 3 Zrotation Xrotation Yrotation
        JOINT LeftToes
        {
          OFFSET -0.04 -4.41509 8.4991
          CHANNELS 3 Zrotation Xrotation Yrotation
          End Site
          {
            OFFSET 0.08 -0.047448 9.77979
          }
        }
      }
    }
  }
}
MOTION
Frames:	12
Frame Time:	0.0166667
-1069.01 96.163 475.947 12.5345 29.4386 -167.082 -9.0274 21.0729 -20.7411 41.8341 51.3947 -12.7726 -10.8946 -0.967342 -0.825063 0.0462048 0.000533403 0.662642 14.6065 33.3661 -40.348 -0.0308794 0.00464004 0.0241307 14.0881 5.41735 -1.00536 -1.98785e-015 -1.59028e-015 3.18055e-015 -66.7766 -9.76774 -87.0964 -7.05568 33.9291 -84.3328 15.2715 16.4805 -9.07147 -1.51409 7.5677 33.3428 107.478 -48.2786 72.3692 -40.4523 24.4565 80.2071 35.4497 30.8527 -27.7898 7.89832 -0.000804997 -63.5547 -20.3748 -0.827965 104.618 67.5267 3.13167 -2.72353 -1.36059e-009 1.55987e-007 -4.83939e-009 
-1067.85 96.6401 475.97 13.4133 31.8883 -161.627 -4.2234 15.6662 -25.0301 40.3287 55.3266 -16.3789 -7.14544 -0.963167 -0.577206 0.0462048 0.000533403 0.662642 16.1361 33.3285 -35.7561 -0.0366095 0.01091 0.0181809 17.9972 4.89677 -9.77119 -1.19271e-015 7.95139e-016 -3.18055e-015 -52.852 4.82749 -92.8713 -3.39801 22.1505 -82.2166 18.9122 10.0651 -7.47532 2.74089 10.1725 23.582 90.5106 -44.2417 63.0785 -45.991 25.411 68.9966 39.5998 26.8139 -28.7473 11.2617 1.89801 -61.662 -18.8114 -0.991714 99.9869 71.5223 3.28255 -2.7859 -1.36058e-009 1.55987e-007 -4.83939e-009 
-1066.6 97.0865 476.029 14.3579 34.2998 -157.229 -1.81823 8.71167 -28.6242 36.9517 60.6116 -17.8347 -2.53051 -0.771588 -0.400844 0.0462048 0.000533403 0.662642 16.6657 33.3278 -29.4895 -0.0415597 0.0220601 0.010331 22.1794 3.47152 -18.8267 2.48481e-016 -7.95139e-016 -1.98785e-016 -41.0305 15.783 -101.135 -1.48417 14.1946 -80.6345 15.4162 14.5104 -7.10445 8.34948 11.8404 13.4528 75.1731 -38.649 55.0115 -47.3654 28.6217 55.4196 42.8426 24.2125 -27.679 15.0803 3.15787 -58.4566 -18.0408 -1.17771 94.5036 74.9843 3.26669 -2.59933 -1.36059e-009 1.55987e-007 -4.83939e-009 
-1065.32 97.4833 476.115 15.4382 36.6528 -153.783 -1.51576 0.776443 -31.8689 31.3461 66.8797 -16.7332 2.50226 -0.343078 -0.347265 0.0462048 0.000533403 0.662642 16.9548 32.8378 -23.3658 0.012138 0.01378 -0.0851103 25.6828 1.88129 -26.883 2.30777e-015 4.96962e-016 -0 -31.262 23.3782 -109.211 -0.769278 9.03663 -79.8238 17.3649 11.7009 -6.62748 14.1417 12.7191 4.47279 61.6821 -31.6687 48.1373 -43.0483 31.8468 39.1718 24.943 17.6566 -12.8501 19.2144 3.89816 -54.0975 -17.9739 -1.3862 88.3706 78.0202 3.15873 -2.21493 -1.36058e-009 1.55987e-007 -4.83939e-009 
-1064.07 97.8002 476.213 16.7068 38.9205 -151.193 -3.12864 -7.72394 -35.1732 21.9519 73.5105 -11.1651 6.97709 0.35047 -0.450332 0.0462048 0.000533403 0.662642 17.149 31.9283 -17.5838 0.019468 0.0216999 -0.0843205 28.7023 0.234022 -34.1096 1.78906e-015 7.95139e-016 -3.18055e-015 -27.3203 29.7962 -112.047 -1.36223 9.94418 -81.8308 14.7537 14.6208 -6.54478 20.165 12.8493 -3.43587 53.076 -26.5993 44.0116 -34.3908 35.0111 23.3906 40.3218 17.171 -19.9492 23.527 4.30845 -48.7261 -18.3993 -1.61522 81.6896 80.726 3.08014 -1.77112 -1.3606e-009 1.55987e-007 -4.83938e-009 
-1062.95 98.0932 476.321 18.1772 41.0607 -149.356 -5.84801 -17.05 -39.6464 3.27265 79.6233 3.71012 -5.28837 1.36091 -0.829462 0.0462048 0.000533403 0.662642 17.3705 30.6876 -12.3336 0.0224481 0.0283299 -0.0802606 31.2918 -1.27416 -40.427 2.78299e-015 1.59028e-015 -3.18055e-015 -27.5862 35.5903 -109.919 -2.71333 14.5126 -85.1964 15.9689 13.417 -6.2468 34.3819 12.8109 -3.71433 36.5982 -30.0812 35.2358 -22.7026 34.9027 8.35962 21.7368 21.1656 -5.97238 27.3705 4.8261 -43.4623 -18.1944 -1.83154 75.4607 82.8681 3.24878 -1.66488 -1.36059e-009 1.55987e-007 -4.83939e-009 
-1061.85 98.2232 476.354 19.8073 43.0209 -148.156 -11.7062 -25.1896 -44.1182 -33.5074 82.1431 36.7074 -1.92655 2.57971 -1.66255 0.0462048 0.000533403 0.662642 17.6346 29.1871 -7.70399 0.0304783 0.0321499 -0.0705908 33.5395 -2.5428 -45.892 3.18055e-015 0 -3.18055e-015 -31.2243 40.5963 -103.429 -3.91647 21.4319 -89.2093 14.5529 15.2092 -6.29002 39.2463 11.1998 -10.0008 33.8796 -27.522 33.2167 -16.4846 32.5654 2.05645 34.5365 5.33826 -18.6278 30.7286 4.80303 -38.2484 -18.166 -1.17766 70.0364 84.0502 3.26528 -1.45252 -1.36059e-009 1.55987e-007 -4.83939e-009 
-1060.84 98.2436 476.202 21.5159 44.7844 -147.44 -19.396 -32.4514 -49.8249 -67.3151 80.8663 67.6185 -7.71192 3.64915 -1.66705 0.0462048 0.000533403 0.662642 18.2607 28.7184 -4.51314 0.0546477 0.13182 -0.101981 35.354 -4.24719 -49.2814 7.95139e-016 0 -0 -33.1034 43.0884 -99.5406 -4.87438 26.0918 -90.9741 16.133 15.0154 -6.68394 42.6001 8.91052 -13.5269 34.6308 -27.9826 28.7278 -16.4766 32.5036 2.05271 20.2106 11.0226 -15.4181 33.6095 4.46913 -33.2135 -17.8745 0.683215 67.1642 83.9153 3.41649 -1.48895 -1.36058e-009 1.55987e-007 -4.83939e-009 
-1059.87 98.3063 475.921 23.2156 46.3679 -147.056 -29.535 -37.7121 -55.9641 -77.4278 78.18 76.6511 -8.09148 4.92492 -2.15124 0.0462048 0.000533403 0.662642 18.7179 29.0901 -2.76724 0.0347873 0.1144 -0.119211 37.1417 -5.72289 -50.802 2.38542e-015 -1.59028e-015 3.18055e-015 -34.1425 43.6534 -96.8302 -5.86698 29.1582 -91.5366 16.1005 16.3518 -7.0301 45.0562 6.80429 -15.1601 35.3945 -28.5614 25.4602 -17.1839 31.9854 3.61682 25.6526 8.15794 -14.8841 35.9182 4.25857 -28.529 -16.4671 2.00734 64.1276 83.6082 3.90304 -1.91918 -1.36059e-009 1.55987e-007 -4.83939e-009 
-1059.01 98.4616 475.61 24.8358 47.8027 -146.876 -40.6065 -40.9676 -62.1028 -73.6858 76.1283 74.2036 -11.751 5.83305 -2.03475 0.0462048 0.000533403 0.662642 18.6594 30.0544 -2.33248 0.0166471 0.0891599 -0.1226 39.1566 -6.68547 -50.6396 7.95139e-016 4.77083e-015 -0 -34.9643 42.5834 -94.3404 -6.93172 31.1038 -91.5117 17.8166 16.3843 -7.37837 46.9476 5.29667 -15.1465 36.0422 -29.2775 22.8691 -18.1279 31.3533 5.38387 18.0769 11.3436 -13.6753 37.6993 4.22941 -24.26 -14.2319 2.76425 60.943 83.1107 4.64486 -2.66711 -1.36059e-009 1.55987e-007 -4.83939e-009 
-1058.18 98.6245 475.207 26.1987 49.0365 -146.718 -50.4633 -41.786 -65.8179 -59.0611 73.6688 62.2226 -8.35292 6.38454 -2.64936 0.0462048 0.000533403 0.662642 18.0032 30.5549 -1.99499 0.0206892 0.00428996 -0.0323405 41.0854 -7.02363 -50.5944 -3.18055e-015 -9.54166e-015 3.18055e-015 -40.9321 40.0141 -90.0099 -10.9733 36.0566 -88.9908 36.6431 23.2922 -6.37663 48.3249 4.16929 -15.1806 36.7249 -30.0101 20.5666 -21.0427 25.8228 7.04503 24.5442 14.6657 -14.1812 38.8835 4.44424 -20.4222 -11.3092 2.87139 57.6218 82.435 5.65749 -3.71958 -1.36059e-009 1.55987e-007 -4.83939e-009 
-1057.31 98.6502 474.625 27.2556 50.0888 -146.492 -58.2769 -41.2326 -66.7674 -40.9878 69.7627 46.739 -0.750183 6.27138 -3.08689 0.0462048 0.000533403 0.662642 16.7063 30.6028 -1.693 0.0224789 0.000309969 -0.0214023 41.4648 -6.61037 -50.7257 1.59028e-015 -6.36111e-015 9.54166e-015 -49.4441 36.7102 -84.889 -13.7598 38.4718 -87.0463 17.695 16.6534 -6.01325 49.4399 3.43048 -15.0323 36.6433 -35.1455 19.0017 -20.829 26.5422 8.9624 21.8362 18.8804 -13.766 39.9872 4.55214 -17.0461 -8.88052 2.81859 54.6246 81.5962 6.48333 -4.50978 -1.36058e-009 1.55987e-007 -4.83939e-009 
